<svg width="248" height="134" viewBox="0 0 248 134" fill="none" xmlns="http://www.w3.org/2000/svg">
<path d="M92.9698 57.1892C84.5955 48.4862 74.8759 24.2646 83.5792 15.8899L83.4552 15.7611C76.4895 22.4638 72.4716 31.6591 72.2855 41.3242C72.0993 50.9892 75.76 60.3324 82.4626 67.2984C86.4842 71.4779 88.6809 77.0838 88.5695 82.8831C88.458 88.6823 86.0472 94.1996 81.8678 98.2212C77.6893 102.244 72.0833 104.442 66.2843 104.331C60.4849 104.221 54.9672 101.811 50.9446 97.6326C46.922 93.4535 44.7243 87.8478 44.8348 82.0486C44.9452 76.2494 47.3549 70.7315 51.5335 66.7091C54.9827 63.39 57.7443 59.424 59.6606 55.0378C61.5771 50.6514 62.6108 45.9306 62.7027 41.1448C62.7947 36.3589 61.9431 31.6019 60.1965 27.1452C58.45 22.6885 55.8427 18.6194 52.5237 15.1704L52.3958 15.2934C60.769 23.9951 50.1323 47.8176 41.4308 56.1968C36.2359 61.1955 32.6384 67.6205 31.0961 74.6626C29.5538 81.7048 30.1344 89.0462 32.7645 95.7583C35.3943 102.471 39.9554 108.252 45.8716 112.372C51.7872 116.492 58.792 118.765 65.9996 118.905C73.2073 119.043 80.2944 117.042 86.365 113.153C92.4353 109.265 97.2158 103.663 100.103 97.0571C102.99 90.4513 103.853 83.1377 102.583 76.0414C101.313 68.9448 97.9679 62.3841 92.9698 57.1892Z" fill="url(#paint0_linear_2_34)"/>
<path d="M139.923 112.655C135.564 112.655 131.583 111.534 127.982 109.291C124.412 107.048 121.553 104.047 119.405 100.288C117.289 96.4971 116.23 92.3114 116.23 87.7309C116.23 84.256 116.846 81.018 118.078 78.017C119.31 74.9844 121.001 72.3308 123.149 70.0563C125.328 67.7503 127.856 65.9496 130.73 64.6544C133.605 63.3593 136.669 62.7117 139.923 62.7117C144.282 62.7117 148.247 63.8331 151.817 66.076C155.418 68.3189 158.277 71.3357 160.393 75.1265C162.541 78.9173 163.615 83.1188 163.615 87.7309C163.615 91.1742 162.999 94.3964 161.767 97.3974C160.535 100.398 158.83 103.052 156.65 105.358C154.502 107.633 151.99 109.417 149.116 110.713C146.273 112.008 143.208 112.655 139.923 112.655ZM139.923 106.021C143.145 106.021 146.036 105.184 148.594 103.51C151.185 101.804 153.222 99.5613 154.707 96.7814C156.223 94.0015 156.982 90.9847 156.982 87.7309C156.982 84.414 156.223 81.3655 154.707 78.5856C153.191 75.7741 151.137 73.5312 148.547 71.857C145.988 70.1827 143.114 69.3456 139.923 69.3456C136.701 69.3456 133.794 70.1985 131.204 71.9043C128.645 73.5786 126.608 75.8057 125.091 78.5856C123.607 81.3655 122.864 84.414 122.864 87.7309C122.864 91.1426 123.638 94.2384 125.186 97.0183C126.734 99.7667 128.803 101.962 131.394 103.605C133.984 105.216 136.827 106.021 139.923 106.021Z" fill="#1E232C"/>
<path d="M171.271 111.423V40.346H177.905V111.423H171.271Z" fill="#1E232C"/>
<path d="M209.797 112.655C205.438 112.655 201.457 111.534 197.856 109.291C194.287 107.048 191.428 104.047 189.28 100.288C187.163 96.4971 186.105 92.3114 186.105 87.7309C186.105 84.256 186.721 81.018 187.953 78.017C189.185 74.9844 190.875 72.3308 193.023 70.0563C195.203 67.7503 197.73 65.9496 200.605 64.6544C203.479 63.3593 206.543 62.7117 209.797 62.7117C213.304 62.7117 216.526 63.4066 219.464 64.7966C222.433 66.1866 224.976 68.1293 227.093 70.6249C229.241 73.1206 230.852 76.0426 231.926 79.3912C233.032 82.7397 233.49 86.3567 233.3 90.2423H193.118C193.497 93.2434 194.444 95.9285 195.961 98.2977C197.509 100.667 199.467 102.547 201.837 103.937C204.237 105.295 206.891 105.99 209.797 106.021C212.956 106.021 215.799 105.2 218.326 103.557C220.885 101.915 222.939 99.6561 224.487 96.7814L231.215 98.3451C229.32 102.547 226.461 105.99 222.638 108.675C218.816 111.329 214.536 112.655 209.797 112.655ZM192.928 84.8878H226.619C226.398 81.9499 225.497 79.2648 223.918 76.8324C222.37 74.3684 220.364 72.4098 217.9 70.9566C215.436 69.4719 212.735 68.7296 209.797 68.7296C206.859 68.7296 204.174 69.4561 201.742 70.9093C199.309 72.3308 197.319 74.2736 195.771 76.7376C194.223 79.17 193.276 81.8868 192.928 84.8878Z" fill="#1E232C"/>
<path d="M241.053 111.423V40.346H247.687V111.423H241.053Z" fill="#1E232C"/>
<defs>
<linearGradient id="paint0_linear_2_34" x1="75.8848" y1="43.3075" x2="77.9074" y2="19.1531" gradientUnits="userSpaceOnUse">
<stop stop-color="#1DA1F2"/>
<stop offset="0.845" stop-color="#CAEBFF"/>
<stop offset="0.9999" stop-color="#FCFCFC"/>
</linearGradient>
</defs>
</svg>
